<?xml version="1.0" encoding="utf-8"?>
<!-- Generator: Adobe Illustrator 26.0.3, SVG Export Plug-In . SVG Version: 6.00 Build 0)  -->
<svg version="1.1" id="Capa_1" xmlns="http://www.w3.org/2000/svg" xmlns:xlink="http://www.w3.org/1999/xlink" x="0px" y="0px"
	 viewBox="0 0 335.9 107.5" style="enable-background:new 0 0 335.9 107.5;" xml:space="preserve">
<style type="text/css">
	.st0{fill:#0068A3;}
	.st1{fill:#F59B09;}
	.st2{fill:#1E59A5;}
	.st3{fill:#E5C620;}
	.st4{fill:#CDCCC7;}
	.st5{fill:#CECDC8;}
	.st6{fill:#131314;}
</style>
<path class="st0" d="M51.8,17.8c10.6,0,15.9,7.9,15.9,17.2c0.1,4.2,0,6.6,0,11.9h-4c0,0-3.5,7.5,2.7,11.9c0,0.3-22.6,7.5-27.8-14.6
	c0,0.3,11.7,7.4,18.5,5.3c0,0,2.7-9.9,0.7-15.9C55.3,26,44,28.1,38.6,31.2C25.3,39,21.1,50.9,16.1,60.2
	C16.1,60.1,19.4,17.8,51.8,17.8 M175.3,85.1c0.5,0,0.9-0.2,1.1-0.5c0.3-0.3,0.4-0.8,0.4-1.3v-0.2l-1.3,0.2c-0.9,0.2-1.3,0.5-1.3,1
	c0,0.2,0.1,0.4,0.3,0.6C174.8,85,175,85.1,175.3,85.1 M174.5,86.9c-0.6,0-1.1-0.1-1.5-0.3c-0.5-0.2-0.8-0.5-1.1-0.9
	s-0.4-0.8-0.4-1.3c0-0.7,0.3-1.3,0.9-1.8c0.6-0.4,1.4-0.8,2.5-0.9l2-0.3v-0.2c0-0.4-0.1-0.7-0.2-0.9s-0.4-0.3-0.8-0.3
	c-0.2,0-0.4,0-0.5,0.1c-0.1,0.1-0.3,0.2-0.5,0.3c-0.1,0.1-0.3,0.2-0.4,0.3c0,0.1-0.1,0.1-0.2,0.1h-1.9c-0.1,0-0.2,0-0.3-0.1
	c-0.1-0.1-0.1-0.2-0.1-0.2c0-0.3,0.1-0.6,0.4-1s0.7-0.7,1.3-0.9c0.6-0.2,1.3-0.4,2.1-0.4c1.3,0,2.3,0.3,2.9,0.9c0.6,0.6,1,1.4,1,2.3
	v4.8c0,0.1,0,0.2-0.1,0.3s-0.2,0.1-0.3,0.1h-2c-0.1,0-0.2,0-0.3-0.1s-0.1-0.2-0.1-0.3v-0.6c-0.2,0.3-0.6,0.6-1,0.8
	C175.6,86.8,175.1,86.9,174.5,86.9 M168,86.8c-0.1,0-0.2,0-0.3-0.1s-0.1-0.2-0.1-0.3v-7.5c0-0.1,0-0.2,0.1-0.3s0.2-0.1,0.3-0.1h2
	c0.1,0,0.2,0,0.3,0.1s0.1,0.2,0.1,0.3v7.5c0,0.1,0,0.2-0.1,0.3s-0.2,0.1-0.3,0.1H168z M168,77.3c-0.1,0-0.2,0-0.3-0.1
	c-0.1-0.1-0.1-0.2-0.1-0.3v-1.5c0-0.1,0-0.2,0.1-0.3s0.2-0.1,0.3-0.1h2c0.1,0,0.2,0,0.3,0.1s0.1,0.2,0.1,0.3v1.5
	c0,0.1,0,0.2-0.1,0.3s-0.2,0.1-0.3,0.1H168z M160.8,86.8c-0.1,0-0.2,0-0.3-0.1s-0.1-0.2-0.1-0.3v-7.5c0-0.1,0-0.2,0.1-0.3
	s0.2-0.1,0.3-0.1h1.9c0.1,0,0.2,0,0.3,0.1s0.1,0.2,0.1,0.3v0.6c0.3-0.3,0.6-0.6,1-0.8c0.4-0.2,0.8-0.3,1.3-0.3h0.7
	c0.1,0,0.2,0,0.3,0.1c0.1,0.1,0.1,0.2,0.1,0.3v1.7c0,0.1,0,0.2-0.1,0.3s-0.2,0.1-0.3,0.1h-1.6c-0.4,0-0.8,0.1-1,0.3
	c-0.2,0.2-0.3,0.6-0.3,1v4c0,0.1,0,0.2-0.1,0.3s-0.2,0.1-0.3,0.1L160.8,86.8L160.8,86.8z M154.4,85.1c0.5,0,0.9-0.2,1.1-0.5
	c0.3-0.3,0.4-0.8,0.4-1.3v-0.2l-1.3,0.2c-0.9,0.2-1.3,0.5-1.3,1c0,0.2,0.1,0.4,0.3,0.6C153.8,85,154.1,85.1,154.4,85.1 M153.6,86.9
	c-0.6,0-1.1-0.1-1.5-0.3c-0.5-0.2-0.8-0.5-1.1-0.9c-0.3-0.4-0.4-0.8-0.4-1.3c0-0.7,0.3-1.3,0.9-1.8c0.6-0.4,1.4-0.8,2.5-0.9l2-0.3
	v-0.2c0-0.4-0.1-0.7-0.2-0.9s-0.4-0.3-0.8-0.3c-0.2,0-0.4,0-0.5,0.1c-0.1,0.1-0.3,0.2-0.5,0.3c-0.1,0.1-0.3,0.2-0.4,0.3
	c0,0.1-0.1,0.1-0.2,0.1h-1.9c-0.1,0-0.2,0-0.3-0.1c-0.1-0.1-0.1-0.2-0.1-0.2c0-0.3,0.1-0.6,0.4-1s0.7-0.7,1.3-0.9
	c0.6-0.2,1.3-0.4,2.1-0.4c1.3,0,2.3,0.3,2.9,0.9s1,1.4,1,2.3v4.8c0,0.1,0,0.2-0.1,0.3s-0.2,0.1-0.3,0.1h-2c-0.1,0-0.2,0-0.3-0.1
	s-0.1-0.2-0.1-0.3v-0.6c-0.2,0.3-0.6,0.6-1,0.8C154.7,86.8,154.2,86.9,153.6,86.9 M141.4,86.8c-0.1,0-0.2,0-0.3-0.1
	s-0.1-0.2-0.1-0.3v-7.5c0-0.1,0-0.2,0.1-0.3s0.2-0.1,0.3-0.1h2c0.1,0,0.2,0,0.3,0.1c0.1,0.1,0.1,0.2,0.1,0.3v0.6
	c0.3-0.3,0.7-0.6,1.1-0.8c0.4-0.2,1-0.3,1.6-0.3c0.6,0,1.1,0.1,1.6,0.4c0.5,0.3,0.9,0.7,1.1,1.2c0.3,0.5,0.4,1.2,0.4,2v4.4
	c0,0.1,0,0.2-0.1,0.3s-0.2,0.1-0.3,0.1H147c-0.1,0-0.2,0-0.3-0.1c-0.1-0.1-0.1-0.2-0.1-0.3V82c0-0.5-0.1-0.8-0.3-1.1
	c-0.2-0.3-0.6-0.4-1-0.4c-0.4,0-0.8,0.1-1,0.4c-0.2,0.3-0.4,0.6-0.4,1.1v4.4c0,0.1,0,0.2-0.1,0.3s-0.2,0.1-0.3,0.1L141.4,86.8
	L141.4,86.8z M135,85.1c0.5,0,0.9-0.2,1.1-0.5c0.3-0.3,0.4-0.8,0.4-1.3v-0.2l-1.3,0.2c-0.9,0.2-1.3,0.5-1.3,1c0,0.2,0.1,0.4,0.3,0.6
	C134.4,85,134.6,85.1,135,85.1 M134.2,86.9c-0.6,0-1.1-0.1-1.5-0.3c-0.5-0.2-0.8-0.5-1.1-0.9c-0.3-0.4-0.4-0.8-0.4-1.3
	c0-0.7,0.3-1.3,0.9-1.8c0.6-0.4,1.4-0.8,2.5-0.9l2-0.3v-0.2c0-0.4-0.1-0.7-0.2-0.9s-0.4-0.3-0.8-0.3c-0.2,0-0.4,0-0.5,0.1
	c-0.1,0.1-0.3,0.2-0.5,0.3c-0.1,0.1-0.3,0.2-0.4,0.3c0,0.1-0.1,0.1-0.2,0.1H132c-0.1,0-0.2,0-0.3-0.1c-0.1-0.1-0.1-0.2-0.1-0.2
	c0-0.3,0.1-0.6,0.4-1s0.7-0.7,1.3-0.9c0.6-0.2,1.3-0.4,2.1-0.4c1.3,0,2.3,0.3,2.9,0.9c0.6,0.6,1,1.4,1,2.3v4.8c0,0.1,0,0.2-0.1,0.3
	s-0.2,0.1-0.3,0.1h-2c-0.1,0-0.2,0-0.3-0.1s-0.1-0.2-0.1-0.3v-0.6c-0.2,0.3-0.6,0.6-1,0.8C135.2,86.8,134.7,86.9,134.2,86.9
	 M125.4,86.9c-1.5,0-2.7-0.4-3.6-1.1c-0.9-0.7-1.3-1.8-1.4-3.2c0-0.3,0-0.8,0-1.4c0-0.7,0-1.1,0-1.4c0.1-1.4,0.5-2.4,1.4-3.2
	c0.9-0.8,2.1-1.1,3.6-1.1c0.9,0,1.8,0.2,2.5,0.5c0.8,0.3,1.3,0.8,1.8,1.3c0.4,0.6,0.7,1.3,0.7,2.1c0,0.1,0,0.2-0.1,0.2
	c-0.1,0.1-0.1,0.1-0.2,0.1h-2.3c-0.2,0-0.3,0-0.3-0.1s-0.1-0.2-0.2-0.3c-0.2-0.5-0.4-0.9-0.7-1.1c-0.3-0.2-0.7-0.3-1.2-0.3
	c-1.2,0-1.8,0.7-1.9,2c0,0.3,0,0.7,0,1.3c0,0.6,0,1.1,0,1.4c0,1.3,0.7,2,1.9,2c0.5,0,0.9-0.1,1.2-0.3s0.5-0.6,0.7-1.1
	c0-0.2,0.1-0.3,0.2-0.3c0.1-0.1,0.2-0.1,0.3-0.1h2.3c0.1,0,0.2,0,0.2,0.1s0.1,0.1,0.1,0.2c0,0.8-0.2,1.5-0.7,2.1
	c-0.4,0.6-1,1-1.8,1.3C127.2,86.8,126.3,86.9,125.4,86.9 M107.5,86.8c-0.1,0-0.2,0-0.3-0.1s-0.1-0.2-0.1-0.3v-7.5
	c0-0.1,0-0.2,0.1-0.3s0.2-0.1,0.3-0.1h2c0.1,0,0.2,0,0.3,0.1c0.1,0.1,0.1,0.2,0.1,0.3v0.6c0.3-0.3,0.7-0.6,1.1-0.8
	c0.4-0.2,1-0.3,1.6-0.3c0.6,0,1.2,0.1,1.6,0.4c0.5,0.3,0.8,0.7,1.1,1.2c0.3,0.5,0.4,1.2,0.4,2v4.4c0,0.1,0,0.2-0.1,0.3
	s-0.2,0.1-0.3,0.1h-2.1c-0.1,0-0.2,0-0.3-0.1s-0.1-0.2-0.1-0.3V82c0-0.5-0.1-0.8-0.3-1.1c-0.2-0.3-0.6-0.4-1-0.4
	c-0.4,0-0.8,0.1-1,0.4c-0.2,0.3-0.4,0.6-0.4,1.1v4.4c0,0.1,0,0.2-0.1,0.3s-0.2,0.1-0.3,0.1L107.5,86.8L107.5,86.8z M101.1,85.1
	c0.5,0,0.8-0.2,1.1-0.5c0.3-0.3,0.4-0.8,0.4-1.3v-0.2l-1.3,0.2c-0.9,0.2-1.3,0.5-1.3,1c0,0.2,0.1,0.4,0.3,0.6
	C100.5,85,100.8,85.1,101.1,85.1 M100.3,86.9c-0.6,0-1.1-0.1-1.5-0.3s-0.8-0.5-1.1-0.9c-0.3-0.4-0.4-0.8-0.4-1.3
	c0-0.7,0.3-1.3,0.9-1.8c0.6-0.4,1.4-0.8,2.5-0.9l2-0.3v-0.2c0-0.4-0.1-0.7-0.2-0.9c-0.2-0.2-0.4-0.3-0.8-0.3c-0.2,0-0.4,0-0.5,0.1
	c-0.1,0.1-0.3,0.2-0.5,0.3c-0.1,0.1-0.3,0.2-0.4,0.3c0,0.1-0.1,0.1-0.2,0.1h-1.8c-0.1,0-0.2,0-0.3-0.1c-0.1-0.1-0.1-0.2-0.1-0.2
	c0-0.3,0.2-0.6,0.4-1s0.7-0.7,1.3-0.9c0.6-0.2,1.3-0.4,2.1-0.4c1.3,0,2.3,0.3,2.9,0.9s1,1.4,1,2.3v4.8c0,0.1,0,0.2-0.1,0.3
	s-0.2,0.1-0.3,0.1h-2c-0.1,0-0.2,0-0.3-0.1s-0.1-0.2-0.1-0.3v-0.6c-0.2,0.3-0.6,0.6-1,0.8C101.3,86.8,100.8,86.9,100.3,86.9
	 M91,86.8c-0.1,0-0.2,0-0.3-0.1s-0.1-0.2-0.1-0.3v-7.5c0-0.1,0-0.2,0.1-0.3s0.2-0.1,0.3-0.1h1.9c0.1,0,0.2,0,0.3,0.1
	s0.1,0.2,0.1,0.3v0.6c0.3-0.3,0.7-0.6,1-0.8c0.4-0.2,0.8-0.3,1.3-0.3h0.7c0.1,0,0.2,0,0.3,0.1c0.1,0.1,0.1,0.2,0.1,0.3v1.7
	c0,0.1,0,0.2-0.1,0.3S96.6,81,96.5,81h-1.6c-0.4,0-0.8,0.1-1,0.3c-0.2,0.2-0.3,0.6-0.3,1v4c0,0.1,0,0.2-0.1,0.3s-0.2,0.1-0.3,0.1
	L91,86.8L91,86.8z M84.1,86.9c-1.5,0-2.8-0.4-3.6-1.1c-0.9-0.8-1.3-1.8-1.4-3.2c0-0.3,0-0.8,0-1.4s0-1.2,0-1.5
	c0-1.3,0.5-2.4,1.4-3.1c0.9-0.7,2.1-1.1,3.6-1.1c1,0,1.9,0.2,2.7,0.5c0.8,0.3,1.3,0.8,1.7,1.3s0.6,1.1,0.6,1.6c0,0.1,0,0.2-0.1,0.2
	s-0.2,0.1-0.2,0.1h-2.5c-0.1,0-0.2,0-0.2-0.1c-0.1,0-0.1-0.1-0.2-0.2c-0.1-0.3-0.3-0.6-0.6-0.8c-0.3-0.2-0.7-0.3-1.2-0.3
	c-1.2,0-1.9,0.6-1.9,1.9c0,0.3,0,0.8,0,1.4s0,1.1,0,1.4c0,1.3,0.7,2,1.9,2c0.6,0,1.1-0.2,1.5-0.5s0.5-0.8,0.5-1.4v-0.3h-1.4
	c-0.1,0-0.2,0-0.3-0.1s-0.1-0.2-0.1-0.3v-1.2c0-0.1,0-0.2,0.1-0.3c0.1-0.1,0.2-0.1,0.3-0.1h4.1c0.1,0,0.2,0,0.3,0.1s0.1,0.2,0.1,0.3
	v1.8c0,0.9-0.2,1.7-0.6,2.3c-0.4,0.7-1,1.2-1.8,1.5C86,86.8,85.1,86.9,84.1,86.9 M185.4,66L185.4,66c0-0.5-0.1-0.9-0.3-1.2
	c-0.2-0.3-0.5-0.4-0.9-0.4c-0.4,0-0.7,0.1-0.9,0.4s-0.3,0.7-0.3,1.2v0H185.4z M184.1,71.2c-1.3,0-2.3-0.3-3.1-1
	c-0.7-0.7-1.1-1.7-1.1-3v-0.5c0-1.3,0.4-2.3,1.2-3c0.7-0.7,1.8-1.1,3-1.1c0.9,0,1.7,0.2,2.3,0.5s1.1,0.9,1.4,1.5
	c0.3,0.6,0.5,1.4,0.5,2.2v0.4c0,0.1,0,0.2-0.1,0.3s-0.2,0.1-0.3,0.1h-5.1v0.1c0,0.5,0.1,0.9,0.3,1.2c0.2,0.3,0.5,0.4,0.9,0.4
	c0.2,0,0.5-0.1,0.6-0.2s0.3-0.2,0.4-0.4c0.1-0.1,0.2-0.2,0.2-0.2s0.1,0,0.3,0h2.1c0.1,0,0.2,0,0.2,0.1s0.1,0.1,0.1,0.2
	c0,0.3-0.2,0.6-0.5,1s-0.8,0.7-1.4,1C185.6,71.1,184.9,71.2,184.1,71.2 M174.3,69c0.5,0,0.8-0.2,1-0.4s0.4-0.7,0.4-1.1
	c0-0.3,0-0.5,0-0.6c0-0.1,0-0.3,0-0.6c0-0.4-0.1-0.8-0.4-1c-0.2-0.3-0.6-0.4-1-0.4c-0.5,0-0.8,0.1-1,0.4c-0.2,0.3-0.3,0.7-0.4,1.2
	l0,0.5l0,0.5c0,0.5,0.1,0.9,0.4,1.2C173.5,68.8,173.8,69,174.3,69 M173.4,71.2c-1,0-1.8-0.3-2.4-1c-0.6-0.7-0.9-1.6-0.9-2.8l0-0.6
	l0-0.6c0-1.2,0.4-2.1,1-2.7c0.6-0.7,1.4-1,2.4-1c1,0,1.7,0.3,2.3,0.9v-3.4c0-0.1,0-0.2,0.1-0.3c0.1-0.1,0.2-0.1,0.3-0.1h2.1
	c0.1,0,0.2,0,0.3,0.1c0.1,0.1,0.1,0.2,0.1,0.3v10.5c0,0.1,0,0.2-0.1,0.3c-0.1,0.1-0.2,0.1-0.3,0.1h-1.9c-0.1,0-0.2,0-0.3-0.1
	s-0.1-0.2-0.1-0.3v-0.5C175.3,70.8,174.4,71.2,173.4,71.2 M161.3,71.2c-0.9,0-1.6-0.1-2.2-0.4c-0.6-0.2-1-0.5-1.3-0.9
	s-0.4-0.7-0.4-0.9c0-0.1,0-0.2,0.1-0.3s0.2-0.1,0.3-0.1h1.9c0.1,0,0.1,0,0.2,0.1c0.2,0.1,0.3,0.2,0.3,0.2c0.2,0.2,0.4,0.3,0.6,0.3
	c0.2,0.1,0.4,0.1,0.6,0.1c0.3,0,0.5-0.1,0.7-0.2c0.2-0.1,0.3-0.3,0.3-0.5c0-0.2-0.1-0.3-0.1-0.4c-0.1-0.1-0.3-0.2-0.6-0.3
	c-0.3-0.1-0.7-0.2-1.3-0.3c-1.8-0.4-2.8-1.2-2.8-2.6c0-0.4,0.1-0.8,0.4-1.2s0.7-0.7,1.2-1s1.2-0.4,2-0.4c0.8,0,1.4,0.1,2,0.4
	s1,0.5,1.3,0.9c0.3,0.3,0.4,0.6,0.4,0.9c0,0.1,0,0.2-0.1,0.3c-0.1,0.1-0.1,0.1-0.2,0.1h-1.8c-0.1,0-0.2,0-0.2-0.1
	c-0.1-0.1-0.3-0.1-0.4-0.2c-0.2-0.1-0.4-0.2-0.5-0.3s-0.3-0.1-0.6-0.1c-0.3,0-0.5,0.1-0.6,0.2s-0.2,0.3-0.2,0.4c0,0.2,0,0.3,0.1,0.4
	c0.1,0.1,0.3,0.2,0.6,0.3c0.3,0.1,0.7,0.2,1.3,0.3c1,0.2,1.8,0.5,2.3,1s0.7,1,0.7,1.6c0,0.8-0.4,1.4-1.1,1.9
	C163.6,71,162.6,71.2,161.3,71.2 M151.9,69.3c0.5,0,0.9-0.2,1.1-0.5s0.4-0.8,0.4-1.3v-0.2l-1.3,0.2c-0.9,0.2-1.3,0.5-1.3,1
	c0,0.2,0.1,0.4,0.3,0.6C151.3,69.2,151.5,69.3,151.9,69.3 M151.1,71.2c-0.6,0-1.1-0.1-1.5-0.3c-0.5-0.2-0.8-0.5-1.1-0.9
	c-0.3-0.4-0.4-0.8-0.4-1.3c0-0.7,0.3-1.3,0.9-1.8s1.4-0.8,2.5-0.9l2-0.3v-0.2c0-0.4-0.1-0.7-0.2-0.9s-0.4-0.3-0.8-0.3
	c-0.2,0-0.4,0-0.5,0.1s-0.3,0.2-0.5,0.3c-0.1,0.1-0.3,0.2-0.4,0.3c0,0.1-0.1,0.1-0.2,0.1h-1.9c-0.1,0-0.2,0-0.3-0.1
	c-0.1-0.1-0.1-0.2-0.1-0.2c0-0.3,0.1-0.6,0.4-1s0.7-0.7,1.3-0.9s1.3-0.4,2.1-0.4c1.3,0,2.3,0.3,2.9,0.9c0.6,0.6,1,1.4,1,2.3v4.8
	c0,0.1,0,0.2-0.1,0.3S156,71,155.9,71h-2c-0.1,0-0.2,0-0.3-0.1s-0.1-0.2-0.1-0.3v-0.6c-0.2,0.3-0.6,0.6-1,0.8
	C152.1,71.1,151.6,71.2,151.1,71.2 M134.5,71c-0.1,0-0.2,0-0.3-0.1s-0.1-0.2-0.1-0.3v-7.5c0-0.1,0-0.2,0.1-0.3
	c0.1-0.1,0.2-0.1,0.3-0.1h1.9c0.1,0,0.2,0,0.3,0.1c0.1,0.1,0.1,0.2,0.1,0.3v0.5c0.2-0.3,0.6-0.6,1-0.8c0.4-0.2,0.9-0.3,1.4-0.3
	c1.2,0,2,0.5,2.4,1.4c0.3-0.4,0.6-0.7,1.1-1s0.9-0.4,1.5-0.4c0.9,0,1.6,0.3,2.1,0.9c0.6,0.6,0.8,1.5,0.8,2.6v4.5
	c0,0.1,0,0.2-0.1,0.3s-0.2,0.1-0.3,0.1h-2c-0.1,0-0.2,0-0.3-0.1s-0.1-0.2-0.1-0.3v-4.4c0-0.5-0.1-0.8-0.3-1.1
	c-0.2-0.2-0.5-0.3-0.8-0.3c-0.3,0-0.6,0.1-0.8,0.3c-0.2,0.2-0.3,0.6-0.3,1.1v4.4c0,0.1,0,0.2-0.1,0.3s-0.2,0.1-0.3,0.1h-2
	c-0.1,0-0.2,0-0.3-0.1c-0.1-0.1-0.1-0.2-0.1-0.3v-4.4c0-0.5-0.1-0.8-0.3-1.1s-0.5-0.3-0.8-0.3c-0.3,0-0.6,0.1-0.8,0.3
	c-0.2,0.2-0.3,0.6-0.3,1.1v4.4c0,0.1,0,0.2-0.1,0.3s-0.2,0.1-0.3,0.1H134.5z M130,71c-0.1,0-0.2,0-0.3-0.1s-0.1-0.2-0.1-0.3V60.1
	c0-0.1,0-0.2,0.1-0.3c0.1-0.1,0.2-0.1,0.3-0.1h2c0.1,0,0.2,0,0.3,0.1c0.1,0.1,0.1,0.2,0.1,0.3v10.5c0,0.1,0,0.2-0.1,0.3
	S132.1,71,132,71H130z M123.6,69.3c0.5,0,0.8-0.2,1.1-0.5s0.4-0.8,0.4-1.3v-0.2l-1.3,0.2c-0.9,0.2-1.3,0.5-1.3,1
	c0,0.2,0.1,0.4,0.3,0.6C123,69.2,123.3,69.3,123.6,69.3 M122.8,71.2c-0.6,0-1.1-0.1-1.5-0.3s-0.8-0.5-1.1-0.9
	c-0.3-0.4-0.4-0.8-0.4-1.3c0-0.7,0.3-1.3,0.9-1.8c0.6-0.4,1.4-0.8,2.5-0.9l2-0.3v-0.2c0-0.4-0.1-0.7-0.2-0.9
	c-0.2-0.2-0.4-0.3-0.8-0.3c-0.2,0-0.4,0-0.5,0.1c-0.1,0.1-0.3,0.2-0.5,0.3c-0.1,0.1-0.3,0.2-0.4,0.3c0,0.1-0.1,0.1-0.2,0.1h-1.8
	c-0.1,0-0.2,0-0.3-0.1s-0.1-0.2-0.1-0.2c0-0.3,0.2-0.6,0.4-1s0.7-0.7,1.3-0.9c0.6-0.3,1.3-0.4,2.1-0.4c1.3,0,2.3,0.3,2.9,0.9
	c0.6,0.6,1,1.4,1,2.3v4.8c0,0.1,0,0.2-0.1,0.3s-0.2,0.1-0.3,0.1h-2c-0.1,0-0.2,0-0.3-0.1s-0.1-0.2-0.1-0.3v-0.6
	c-0.2,0.3-0.6,0.6-1,0.8C123.9,71.1,123.4,71.2,122.8,71.2 M114.7,64.9c0.4,0,0.8-0.1,1-0.3c0.2-0.2,0.4-0.6,0.4-1
	c0-0.4-0.1-0.8-0.3-1c-0.2-0.3-0.6-0.4-1.1-0.4h-1.8v2.7C112.9,64.9,114.7,64.9,114.7,64.9z M110.2,71c-0.1,0-0.2,0-0.3-0.1
	s-0.1-0.2-0.1-0.3V60.3c0-0.1,0-0.2,0.1-0.3c0.1-0.1,0.2-0.1,0.3-0.1h4.5c1.4,0,2.5,0.3,3.3,0.9c0.8,0.6,1.2,1.5,1.2,2.8
	s-0.4,2.1-1.2,2.7s-1.9,0.9-3.3,0.9h-1.8v3.4c0,0.1,0,0.2-0.1,0.3s-0.2,0.1-0.3,0.1H110.2z M101.1,71.2c-0.9,0-1.6-0.1-2.2-0.4
	c-0.6-0.2-1-0.5-1.3-0.9s-0.4-0.7-0.4-0.9c0-0.1,0-0.2,0.1-0.3s0.2-0.1,0.3-0.1h1.9c0.1,0,0.1,0,0.2,0.1c0.2,0.1,0.3,0.2,0.3,0.2
	c0.2,0.2,0.4,0.3,0.6,0.3c0.2,0.1,0.4,0.1,0.6,0.1c0.3,0,0.5-0.1,0.7-0.2c0.2-0.1,0.3-0.3,0.3-0.5c0-0.2-0.1-0.3-0.2-0.4
	c-0.1-0.1-0.3-0.2-0.6-0.3s-0.7-0.2-1.3-0.3c-1.8-0.4-2.8-1.2-2.8-2.6c0-0.4,0.1-0.8,0.4-1.2s0.7-0.7,1.2-1s1.2-0.4,2-0.4
	c0.8,0,1.4,0.1,2,0.4s1,0.5,1.3,0.9c0.3,0.3,0.4,0.6,0.4,0.9c0,0.1,0,0.2-0.1,0.3c-0.1,0.1-0.2,0.1-0.2,0.1h-1.8
	c-0.1,0-0.2,0-0.2-0.1c-0.1-0.1-0.3-0.1-0.4-0.2c-0.2-0.1-0.4-0.2-0.5-0.3s-0.3-0.1-0.6-0.1c-0.3,0-0.5,0.1-0.6,0.2
	s-0.2,0.3-0.2,0.4c0,0.2,0,0.3,0.1,0.4c0.1,0.1,0.3,0.2,0.6,0.3c0.3,0.1,0.7,0.2,1.3,0.3c1,0.2,1.8,0.5,2.3,1c0.5,0.5,0.7,1,0.7,1.6
	c0,0.8-0.3,1.4-1.1,1.9C103.3,71,102.3,71.2,101.1,71.2 M91.6,69.3c0.5,0,0.8-0.2,1.1-0.5s0.4-0.8,0.4-1.3v-0.2l-1.3,0.2
	c-0.9,0.2-1.3,0.5-1.3,1c0,0.2,0.1,0.4,0.3,0.6C91,69.2,91.3,69.3,91.6,69.3 M90.8,71.2c-0.6,0-1.1-0.1-1.5-0.3s-0.8-0.5-1.1-0.9
	s-0.4-0.8-0.4-1.3c0-0.7,0.3-1.3,0.9-1.8s1.4-0.8,2.5-0.9l2-0.3v-0.2c0-0.4-0.1-0.7-0.2-0.9c-0.2-0.2-0.4-0.3-0.8-0.3
	c-0.2,0-0.4,0-0.5,0.1s-0.3,0.2-0.5,0.3c-0.1,0.1-0.3,0.2-0.4,0.3c0,0.1-0.1,0.1-0.2,0.1h-1.8c-0.1,0-0.2,0-0.3-0.1
	s-0.1-0.2-0.1-0.2c0-0.3,0.2-0.6,0.4-1s0.7-0.7,1.3-0.9c0.6-0.3,1.3-0.4,2.1-0.4c1.3,0,2.3,0.3,2.9,0.9c0.6,0.6,1,1.4,1,2.3v4.8
	c0,0.1,0,0.2-0.1,0.3S95.7,71,95.6,71h-2c-0.1,0-0.2,0-0.3-0.1s-0.1-0.2-0.1-0.3v-0.6c-0.2,0.3-0.6,0.6-1,0.8
	C91.8,71.1,91.3,71.2,90.8,71.2 M79.4,71c-0.1,0-0.2,0-0.3-0.1S79,70.7,79,70.6V60.3c0-0.1,0-0.2,0.1-0.3c0.1-0.1,0.2-0.1,0.3-0.1
	h2.2c0.1,0,0.2,0,0.3,0.1c0.1,0.1,0.1,0.2,0.1,0.3v8.3h4.8c0.1,0,0.2,0,0.3,0.1s0.1,0.2,0.1,0.3v1.7c0,0.1,0,0.2-0.1,0.3
	C87.1,71,87,71,86.9,71C86.9,71,79.4,71,79.4,71z M187.7,50.4L187.7,50.4c0-0.7-0.2-1.2-0.5-1.5c-0.3-0.4-0.7-0.6-1.3-0.6
	c-0.5,0-1,0.2-1.3,0.6s-0.5,0.9-0.5,1.5v0H187.7z M186,55.4c-1.2,0-2.1-0.3-2.8-1c-0.7-0.7-1.1-1.7-1.1-2.9l0-0.4
	c0-1.3,0.4-2.4,1-3.1s1.7-1.2,2.9-1.2c1.3,0,2.2,0.4,2.9,1.2c0.7,0.8,1,1.8,1,3.1v0.3c0,0.1,0,0.2-0.1,0.3c-0.1,0.1-0.2,0.1-0.3,0.1
	h-5.3v0.1c0,0.6,0.2,1.1,0.5,1.5c0.3,0.4,0.7,0.6,1.2,0.6c0.6,0,1.1-0.2,1.5-0.7c0.1-0.1,0.2-0.2,0.2-0.2c0.1,0,0.1,0,0.3,0h1.4
	c0.1,0,0.2,0,0.2,0.1c0.1,0,0.1,0.1,0.1,0.2c0,0.3-0.1,0.6-0.4,0.9c-0.3,0.3-0.7,0.7-1.3,0.9C187.4,55.3,186.7,55.4,186,55.4
	 M176.5,53.7c0.6,0,1.1-0.2,1.4-0.6c0.3-0.4,0.4-0.9,0.5-1.4c0-0.1,0-0.3,0-0.6c0-0.3,0-0.5,0-0.6c0-0.5-0.2-1-0.5-1.4
	c-0.3-0.4-0.8-0.6-1.3-0.6c-1.1,0-1.7,0.7-1.8,2.1l0,0.5l0,0.5C174.7,53,175.3,53.7,176.5,53.7 M175.9,55.4c-1.1,0-1.9-0.3-2.5-1
	s-0.9-1.6-0.9-2.8l0-0.5l0-0.5c0-1.1,0.4-2,0.9-2.7c0.6-0.7,1.4-1,2.5-1c1,0,1.8,0.3,2.4,1v-3.5c0-0.1,0-0.2,0.1-0.3
	s0.2-0.1,0.3-0.1h1.4c0.1,0,0.2,0,0.3,0.1c0.1,0.1,0.1,0.2,0.1,0.3v10.6c0,0.1,0,0.2-0.1,0.3c-0.1,0.1-0.2,0.1-0.3,0.1h-1.3
	c-0.1,0-0.2,0-0.3-0.1s-0.1-0.2-0.1-0.3v-0.6C177.8,55.1,177,55.4,175.9,55.4 M163.2,53.7c0.6,0,1.1-0.2,1.4-0.6
	c0.3-0.4,0.4-0.9,0.5-1.4c0-0.1,0-0.3,0-0.6c0-0.3,0-0.5,0-0.6c0-0.5-0.2-1-0.5-1.4c-0.3-0.4-0.8-0.6-1.3-0.6
	c-1.1,0-1.7,0.7-1.8,2.1l0,0.5l0,0.5C161.5,53,162.1,53.7,163.2,53.7 M162.6,55.4c-1.1,0-1.9-0.3-2.5-1s-0.9-1.6-0.9-2.8l0-0.5
	l0-0.5c0-1.1,0.4-2,0.9-2.7c0.6-0.7,1.4-1,2.5-1c1,0,1.8,0.3,2.4,1v-3.5c0-0.1,0-0.2,0.1-0.3s0.2-0.1,0.3-0.1h1.4
	c0.1,0,0.2,0,0.3,0.1c0.1,0.1,0.1,0.2,0.1,0.3v10.6c0,0.1,0,0.2-0.1,0.3s-0.2,0.1-0.3,0.1h-1.3c-0.1,0-0.2,0-0.3-0.1
	s-0.1-0.2-0.1-0.3v-0.6C164.6,55.1,163.7,55.4,162.6,55.4 M153.5,53.9c0.6,0,1.1-0.2,1.4-0.6c0.4-0.4,0.6-0.9,0.6-1.7v-0.3l-1.6,0.3
	c-1.2,0.2-1.8,0.6-1.8,1.2c0,0.3,0.1,0.6,0.4,0.8C152.8,53.8,153.1,53.9,153.5,53.9 M153,55.4c-0.5,0-1-0.1-1.5-0.3
	c-0.4-0.2-0.8-0.5-1.1-0.9c-0.3-0.4-0.4-0.8-0.4-1.2c0-0.7,0.3-1.3,0.9-1.8c0.6-0.5,1.4-0.8,2.4-0.9l2.2-0.3v-0.3
	c0-0.5-0.1-0.8-0.4-1s-0.6-0.3-1.1-0.3c-0.4,0-0.6,0.1-0.9,0.2c-0.2,0.1-0.4,0.3-0.5,0.4c-0.1,0.1-0.2,0.2-0.3,0.3
	c0,0.1-0.1,0.2-0.2,0.2h-1.2c-0.1,0-0.2,0-0.2-0.1s-0.1-0.2-0.1-0.3c0-0.3,0.1-0.6,0.4-0.9c0.2-0.3,0.6-0.6,1.2-0.9s1.2-0.4,1.9-0.4
	c1.3,0,2.2,0.3,2.7,0.8c0.6,0.6,0.9,1.3,0.9,2.2v5c0,0.1,0,0.2-0.1,0.3s-0.2,0.1-0.3,0.1H156c-0.1,0-0.2,0-0.3-0.1
	c-0.1-0.1-0.1-0.2-0.1-0.3v-0.6c-0.2,0.3-0.6,0.6-1,0.8C154.2,55.3,153.6,55.4,153,55.4 M144.6,53.7c0.6,0,1.1-0.2,1.4-0.6
	c0.3-0.4,0.4-0.9,0.5-1.4c0-0.1,0-0.3,0-0.6c0-0.3,0-0.5,0-0.6c0-0.5-0.2-1-0.5-1.4c-0.3-0.4-0.8-0.6-1.3-0.6
	c-1.1,0-1.7,0.7-1.8,2.1l0,0.5l0,0.5C142.9,53,143.5,53.7,144.6,53.7 M144.1,55.4c-1.1,0-1.9-0.3-2.5-1s-0.9-1.6-0.9-2.8l0-0.5
	l0-0.5c0-1.1,0.4-2,0.9-2.7c0.6-0.7,1.4-1,2.5-1c1,0,1.8,0.3,2.4,1v-3.5c0-0.1,0-0.2,0.1-0.3s0.2-0.1,0.3-0.1h1.4
	c0.1,0,0.2,0,0.3,0.1c0.1,0.1,0.1,0.2,0.1,0.3v10.6c0,0.1,0,0.2-0.1,0.3s-0.2,0.1-0.3,0.1H147c-0.1,0-0.2,0-0.3-0.1
	c-0.1-0.1-0.1-0.2-0.1-0.3v-0.6C146,55.1,145.1,55.4,144.1,55.4 M137.3,55.3c-0.1,0-0.2,0-0.3-0.1s-0.1-0.2-0.1-0.3v-7.5
	c0-0.1,0-0.2,0.1-0.3s0.2-0.1,0.3-0.1h1.4c0.1,0,0.2,0,0.3,0.1s0.1,0.2,0.1,0.3v7.5c0,0.1,0,0.2-0.1,0.3s-0.2,0.1-0.3,0.1
	L137.3,55.3z M137.2,45.6c-0.1,0-0.2,0-0.3-0.1c-0.1-0.1-0.1-0.2-0.1-0.3v-1.2c0-0.1,0-0.2,0.1-0.3c0.1-0.1,0.2-0.1,0.3-0.1h1.5
	c0.1,0,0.2,0,0.3,0.1c0.1,0.1,0.1,0.2,0.1,0.3v1.2c0,0.1,0,0.2-0.1,0.3s-0.2,0.1-0.3,0.1H137.2z M131.8,55.4c-0.8,0-1.5-0.1-2-0.4
	c-0.5-0.2-0.9-0.5-1.2-0.8s-0.4-0.6-0.4-0.8c0-0.1,0-0.2,0.1-0.3c0.1-0.1,0.1-0.1,0.2-0.1h1.3c0.1,0,0.2,0,0.2,0.1
	c0.1,0,0.2,0.1,0.4,0.3s0.4,0.3,0.6,0.4c0.2,0.1,0.5,0.1,0.8,0.1c0.4,0,0.8-0.1,1-0.2c0.3-0.2,0.4-0.4,0.4-0.7
	c0-0.2-0.1-0.4-0.2-0.5s-0.3-0.3-0.6-0.4s-0.8-0.2-1.4-0.4c-0.9-0.2-1.6-0.5-2-0.9c-0.4-0.4-0.6-0.9-0.6-1.6c0-0.4,0.1-0.8,0.4-1.2
	c0.3-0.4,0.6-0.7,1.1-0.9s1.1-0.4,1.8-0.4c0.7,0,1.4,0.1,1.9,0.3c0.5,0.2,0.9,0.5,1.2,0.8s0.4,0.6,0.4,0.8c0,0.1,0,0.2-0.1,0.2
	c-0.1,0.1-0.1,0.1-0.2,0.1h-1.2c-0.1,0-0.2,0-0.3-0.1c-0.1,0-0.2-0.2-0.4-0.3c-0.2-0.1-0.4-0.3-0.6-0.3s-0.4-0.1-0.7-0.1
	c-0.4,0-0.7,0.1-0.9,0.3s-0.3,0.4-0.3,0.7c0,0.2,0.1,0.3,0.1,0.5c0.1,0.1,0.3,0.2,0.6,0.4c0.3,0.1,0.8,0.2,1.4,0.3
	c1.9,0.4,2.9,1.2,2.9,2.5c0,0.8-0.3,1.4-1,1.8C133.8,55.2,132.9,55.4,131.8,55.4 M122.5,55.3c-0.1,0-0.2,0-0.3-0.1s-0.1-0.2-0.1-0.3
	v-7.5c0-0.1,0-0.2,0.1-0.3s0.2-0.1,0.3-0.1h1.3c0.1,0,0.2,0,0.3,0.1c0.1,0.1,0.1,0.2,0.1,0.3V48c0.5-0.7,1.3-1,2.3-1h0.7
	c0.1,0,0.2,0,0.3,0.1s0.1,0.2,0.1,0.3v1.2c0,0.1,0,0.2-0.1,0.3s-0.2,0.1-0.3,0.1h-1.3c-0.5,0-0.9,0.1-1.2,0.4s-0.4,0.7-0.4,1.2v4.4
	c0,0.1,0,0.2-0.1,0.3c-0.1,0.1-0.2,0.1-0.3,0.1L122.5,55.3L122.5,55.3z M118.4,50.4L118.4,50.4c0-0.7-0.2-1.2-0.5-1.5
	c-0.3-0.4-0.7-0.6-1.3-0.6c-0.5,0-1,0.2-1.3,0.6s-0.5,0.9-0.5,1.5v0H118.4z M116.6,55.4c-1.2,0-2.1-0.3-2.8-1
	c-0.7-0.7-1.1-1.7-1.1-2.9l0-0.4c0-1.3,0.3-2.4,1-3.1c0.7-0.8,1.7-1.2,2.9-1.2c1.3,0,2.2,0.4,2.9,1.2s1,1.8,1,3.1v0.3
	c0,0.1,0,0.2-0.1,0.3c-0.1,0.1-0.2,0.1-0.3,0.1h-5.3v0.1c0,0.6,0.2,1.1,0.5,1.5c0.3,0.4,0.7,0.6,1.2,0.6c0.6,0,1.1-0.2,1.5-0.7
	c0.1-0.1,0.2-0.2,0.2-0.2c0.1,0,0.1,0,0.3,0h1.4c0.1,0,0.2,0,0.2,0.1c0.1,0,0.1,0.1,0.1,0.2c0,0.3-0.2,0.6-0.4,0.9
	c-0.3,0.3-0.7,0.7-1.3,0.9C118,55.3,117.4,55.4,116.6,55.4 M107,55.3c-0.2,0-0.3,0-0.4-0.1c-0.1-0.1-0.2-0.2-0.2-0.3l-3-7.4
	c0,0,0-0.1,0-0.1c0-0.1,0-0.2,0.1-0.2c0.1-0.1,0.2-0.1,0.2-0.1h1.3c0.2,0,0.4,0.1,0.4,0.3l2.1,5.6l2.1-5.6c0-0.1,0.1-0.1,0.1-0.2
	c0.1-0.1,0.2-0.1,0.3-0.1h1.3c0.1,0,0.2,0,0.2,0.1s0.1,0.2,0.1,0.2c0,0.1,0,0.1,0,0.1l-3,7.4c-0.1,0.3-0.3,0.4-0.6,0.4L107,55.3
	L107,55.3z M100.4,55.3c-0.1,0-0.2,0-0.3-0.1S100,55,100,54.9v-7.5c0-0.1,0-0.2,0.1-0.3s0.2-0.1,0.3-0.1h1.4c0.1,0,0.2,0,0.3,0.1
	c0.1,0.1,0.1,0.2,0.1,0.3v7.5c0,0.1,0,0.2-0.1,0.3s-0.2,0.1-0.3,0.1L100.4,55.3z M100.3,45.6c-0.1,0-0.2,0-0.3-0.1
	c-0.1-0.1-0.1-0.2-0.1-0.3v-1.2c0-0.1,0-0.2,0.1-0.3c0.1-0.1,0.2-0.1,0.3-0.1h1.5c0.1,0,0.2,0,0.3,0.1c0.1,0.1,0.1,0.2,0.1,0.3v1.2
	c0,0.1,0,0.2-0.1,0.3s-0.2,0.1-0.3,0.1H100.3z M90.6,55.3c-0.1,0-0.2,0-0.3-0.1s-0.1-0.2-0.1-0.3v-7.5c0-0.1,0-0.2,0.1-0.3
	s0.2-0.1,0.3-0.1h1.3c0.1,0,0.2,0,0.3,0.1s0.1,0.2,0.1,0.3V48c0.7-0.8,1.5-1.2,2.7-1.2c1,0,1.8,0.3,2.3,1c0.6,0.6,0.9,1.5,0.9,2.6
	v4.5c0,0.1,0,0.2-0.1,0.3c-0.1,0.1-0.2,0.1-0.3,0.1h-1.4c-0.1,0-0.2,0-0.3-0.1S96,55,96,54.9v-4.4c0-0.6-0.2-1.1-0.5-1.4
	c-0.3-0.3-0.7-0.5-1.3-0.5c-0.5,0-1,0.2-1.3,0.5c-0.3,0.3-0.5,0.8-0.5,1.4v4.4c0,0.1,0,0.2-0.1,0.3s-0.2,0.1-0.3,0.1H90.6z
	 M83.7,55.4c-1.4,0-2.6-0.4-3.4-1.1s-1.2-1.8-1.2-3.3v-6.5c0-0.1,0-0.2,0.1-0.3c0.1-0.1,0.2-0.1,0.3-0.1h1.5c0.1,0,0.2,0,0.3,0.1
	c0.1,0.1,0.1,0.2,0.1,0.3V51c0,0.8,0.2,1.5,0.6,1.9c0.4,0.4,1,0.6,1.7,0.6s1.3-0.2,1.7-0.6c0.4-0.4,0.6-1.1,0.6-1.9v-6.5
	c0-0.1,0-0.2,0.1-0.3c0.1-0.1,0.2-0.1,0.3-0.1h1.5c0.1,0,0.2,0,0.3,0.1c0.1,0.1,0.1,0.2,0.1,0.3V51c0,1.5-0.4,2.6-1.2,3.3
	C86.2,55.1,85.1,55.4,83.7,55.4"/>
<path class="st1" d="M126.7,39.7c-1.5,0-2.7-0.4-3.6-1.1c-0.9-0.7-1.3-1.8-1.4-3.2c0-0.3,0-0.8,0-1.4c0-0.7,0-1.1,0-1.4
	c0.1-1.4,0.5-2.5,1.4-3.2c0.9-0.8,2.1-1.1,3.6-1.1c0.9,0,1.8,0.1,2.5,0.5s1.3,0.8,1.8,1.3s0.7,1.3,0.7,2.1c0,0.1,0,0.2-0.1,0.2
	c-0.1,0.1-0.1,0.1-0.2,0.1h-2.3c-0.1,0-0.3,0-0.3-0.1s-0.1-0.2-0.2-0.3c-0.1-0.5-0.4-0.9-0.7-1.1c-0.3-0.2-0.7-0.3-1.2-0.3
	c-1.2,0-1.8,0.7-1.9,2c0,0.3,0,0.7,0,1.3c0,0.6,0,1,0,1.4c0,1.3,0.7,2,1.9,2c0.5,0,0.9-0.1,1.2-0.3c0.3-0.2,0.5-0.6,0.7-1.1
	c0-0.2,0.1-0.3,0.2-0.3c0.1-0.1,0.2-0.1,0.3-0.1h2.3c0.1,0,0.2,0,0.2,0.1c0.1,0.1,0.1,0.1,0.1,0.2c0,0.8-0.2,1.5-0.7,2.1
	s-1,1-1.8,1.3C128.4,39.6,127.6,39.7,126.7,39.7 M115.3,39.7c-1.5,0-2.8-0.4-3.6-1.1c-0.9-0.8-1.3-1.8-1.4-3.2c0-0.3,0-0.8,0-1.5
	c0-0.7,0-1.2,0-1.5c0-1.3,0.5-2.4,1.4-3.1c0.9-0.7,2.1-1.1,3.6-1.1c1,0,1.9,0.2,2.7,0.5c0.8,0.3,1.3,0.8,1.7,1.3s0.6,1,0.6,1.6
	c0,0.1,0,0.2-0.1,0.2c-0.1,0.1-0.2,0.1-0.2,0.1h-2.5c-0.1,0-0.2,0-0.2-0.1c-0.1,0-0.1-0.1-0.2-0.2c-0.1-0.3-0.3-0.5-0.6-0.8
	c-0.3-0.2-0.7-0.3-1.2-0.3c-1.2,0-1.9,0.6-1.9,1.9c0,0.3,0,0.8,0,1.4s0,1.1,0,1.4c0,1.3,0.7,2,1.9,2c0.6,0,1.1-0.2,1.5-0.5
	c0.4-0.3,0.5-0.8,0.5-1.4v-0.3H116c-0.1,0-0.2,0-0.3-0.1c-0.1-0.1-0.1-0.2-0.1-0.3v-1.2c0-0.1,0-0.2,0.1-0.3
	c0.1-0.1,0.2-0.1,0.3-0.1h4.1c0.1,0,0.2,0,0.3,0.1c0.1,0.1,0.1,0.2,0.1,0.3v1.8c0,0.9-0.2,1.7-0.6,2.3s-1,1.2-1.8,1.5
	C117.2,39.5,116.4,39.7,115.3,39.7 M104.8,33.4c0.4,0,0.8-0.1,1-0.3s0.4-0.6,0.4-1c0-0.4-0.1-0.8-0.3-1c-0.2-0.3-0.6-0.4-1.1-0.4
	h-1.8v2.7L104.8,33.4z M100.4,39.6c-0.1,0-0.2,0-0.3-0.1c-0.1-0.1-0.1-0.2-0.1-0.3V28.8c0-0.1,0-0.2,0.1-0.3
	c0.1-0.1,0.2-0.1,0.3-0.1h4.5c1.4,0,2.5,0.3,3.3,0.9c0.8,0.6,1.2,1.5,1.2,2.8c0,1.2-0.4,2.1-1.2,2.7c-0.8,0.6-1.9,0.9-3.3,0.9h-1.8
	v3.5c0,0.1,0,0.2-0.1,0.3c-0.1,0.1-0.2,0.1-0.3,0.1L100.4,39.6L100.4,39.6z M91,39.6c-0.1,0-0.2,0-0.3-0.1c-0.1-0.1-0.1-0.2-0.1-0.3
	V28.8c0-0.1,0-0.2,0.1-0.3c0.1-0.1,0.2-0.1,0.3-0.1h2.2c0.1,0,0.2,0,0.3,0.1c0.1,0.1,0.1,0.2,0.1,0.3v8.3h4.8c0.1,0,0.2,0,0.3,0.1
	s0.1,0.2,0.1,0.3v1.7c0,0.1,0,0.2-0.1,0.3c-0.1,0.1-0.2,0.1-0.3,0.1H91z M83.9,39.7c-1.5,0-2.7-0.4-3.6-1.1S79,36.8,79,35.3v-6.5
	c0-0.1,0-0.2,0.1-0.3c0.1-0.1,0.2-0.1,0.3-0.1h2.2c0.1,0,0.2,0,0.3,0.1s0.1,0.2,0.1,0.3v6.5c0,0.7,0.2,1.2,0.5,1.5
	c0.3,0.3,0.8,0.5,1.3,0.5c0.6,0,1-0.2,1.3-0.5c0.3-0.3,0.5-0.8,0.5-1.5v-6.5c0-0.1,0-0.2,0.1-0.3s0.2-0.1,0.3-0.1h2.2
	c0.1,0,0.2,0,0.3,0.1s0.1,0.2,0.1,0.3v6.5c0,1.5-0.4,2.6-1.3,3.3C86.6,39.4,85.4,39.7,83.9,39.7"/>
<g>
	<path class="st2" d="M292.2,61.3c0,4.7,0,9.4,0,14c0,1.1,0.5,1.9,1.5,2.3c0.9,0.4,1.8,0.3,2.6-0.3c0.7-0.5,1-1.2,1-2
		c0-0.9,0-1.8,0-2.6c0-8.4,0-16.9,0-25.3c0-0.5,0.1-0.7,0.7-0.7c3.8,0,7.7,0,11.5,0c0.5,0,0.6,0.1,0.6,0.6c0,8.8,0,17.6,0,26.4
		c0,3.9-1.8,7.1-4.7,9.7c-3.3,2.9-7.1,4.4-11.5,4.1c-6.4-0.4-12.6-5.1-14-11.2c-0.2-0.9-0.3-1.7-0.3-2.6c0-8.8,0-17.5,0-26.3
		c0-0.5,0.1-0.7,0.7-0.7c3.8,0,7.6,0,11.5,0c0.5,0,0.6,0.1,0.6,0.6C292.2,52,292.2,56.6,292.2,61.3z"/>
	<path class="st3" d="M261.8,60.8c0-4.5,0-9,0-13.5c0-0.5,0.1-0.7,0.7-0.7c3.8,0,7.6,0,11.4,0c0.5,0,0.7,0.1,0.7,0.7
		c0,8.5,0,17.1,0,25.6c0,4.5,1.5,8.5,4.6,11.8c0.4,0.5,0.9,0.9,1.4,1.3c0.1,0.1,0.4,0.2,0.3,0.4c0,0.1-0.2,0.2-0.4,0.2
		c-2.6,0.9-5.3,1.1-8.1,0.4c-6.3-1.6-10.5-7.1-10.6-13.7C261.7,69.2,261.8,65,261.8,60.8z"/>
	<path class="st4" d="M226.3,60.8c0-4.5,0-9,0-13.5c0-0.5,0.1-0.7,0.7-0.7c3.8,0,7.6,0,11.4,0c0.5,0,0.7,0.1,0.7,0.7
		c0,8.8,0,17.5,0,26.3c0,2.5,0.6,4.9,1.7,7.1c1.1,2.1,2.5,3.9,4.3,5.4c0.4,0.3,0.3,0.4-0.1,0.5c-2,0.7-4,0.9-6.1,0.7
		c-2.4-0.3-4.6-1-6.5-2.4c-3.1-2.2-5-5.1-5.8-8.9c-0.2-0.9-0.2-1.8-0.2-2.7C226.4,69.2,226.3,65,226.3,60.8z"/>
	<path class="st5" d="M221.4,61.1c0,4.4,0,8.8,0,13.2c0,2,0.5,4,1.4,5.8c0.9,2.1,2.3,3.9,4,5.5c0.1,0.1,0.2,0.2,0.3,0.2
		c0.2,0.2,0.6,0.3,0.5,0.5c-0.1,0.3-0.5,0.3-0.8,0.4c-4.7,1.4-9.1,0.6-12.9-2.4c-2.9-2.3-4.6-5.3-5.1-8.9c-0.1-0.6-0.1-1.3-0.1-1.9
		c0-8.7,0-17.4,0-26.1c0-0.7,0-0.7,0.8-0.7c3.7,0,7.5,0,11.2,0c0.6,0,0.8,0.1,0.8,0.7C221.4,51.9,221.4,56.5,221.4,61.1
		C221.4,61.1,221.4,61.1,221.4,61.1z"/>
	<path class="st5" d="M256.8,61.1c0,4.2,0,8.5,0,12.7c0,3.5,1.2,6.7,3.3,9.5c0.8,1,1.6,2,2.6,2.8c0.4,0.3,0.4,0.5-0.2,0.6
		c-1.9,0.6-3.9,0.8-5.9,0.7c-2.4-0.2-4.5-1-6.5-2.4c-3.3-2.3-5.4-5.5-5.9-9.6c-0.1-0.6-0.1-1.1-0.1-1.6c0-8.8,0-17.6,0-26.4
		c0-0.6,0.2-0.7,0.7-0.7c3.7,0,7.5,0,11.2,0c0.8,0,0.8,0,0.8,0.8C256.8,52,256.8,56.5,256.8,61.1z"/>
	<g>
		<path class="st6" d="M297.6,40c0,0.4,0,0.9,0,1.3c0,0.2,0.2,0.5-0.1,0.5c-0.3,0.1-0.6,0.2-0.8-0.1c-0.2-0.2-0.3-0.2-0.4-0.1
			c-0.4,0.3-0.9,0.4-1.4,0.3c-0.7-0.1-1.3-0.6-1.4-1.3c-0.1-0.8,0.2-1.4,0.9-1.7c0.5-0.2,1-0.2,1.5-0.3c0.2,0,0.6,0.1,0.6-0.2
			c0-0.4-0.2-0.6-0.5-0.8c-0.5-0.2-1-0.1-1.4,0.2c-0.2,0.1-0.4,0.1-0.5-0.1c-0.2-0.3-0.2-0.5,0.2-0.7c0.7-0.3,1.4-0.4,2.2-0.2
			c0.7,0.2,1.1,0.7,1.2,1.5c0,0.1,0,0.1,0,0.2C297.6,39,297.6,39.5,297.6,40C297.6,40,297.6,40,297.6,40z M296.4,40.1
			c0-0.6,0-0.6-0.5-0.6c-0.9,0-1.3,0.2-1.4,0.7c0,0.4,0.3,0.7,0.8,0.7C296.1,41.1,296.4,40.8,296.4,40.1z"/>
		<path class="st6" d="M298.8,39.4c0-0.7,0-1.3,0-2c0-0.2-0.1-0.5,0.2-0.5c0.3,0,0.6-0.2,0.8,0.2c0.1,0.3,0.2,0.2,0.4,0.1
			c0.4-0.2,0.8-0.4,1.2-0.4c0.9-0.1,1.6,0.4,1.7,1.3c0.1,1.2,0.1,2.4,0,3.6c0,0.5-0.4,0.2-0.7,0.3c-0.2,0-0.5,0.1-0.5-0.3
			c0-0.8,0-1.5,0-2.3c0-0.1,0-0.2,0-0.3c0-0.5,0-1-0.5-1.2c-0.6-0.2-1,0.1-1.5,0.4c-0.2,0.1-0.1,0.3-0.1,0.5c0,0.9,0,1.8,0,2.7
			c0,0.5-0.2,0.4-0.5,0.4c-0.3,0-0.6,0.1-0.6-0.4C298.8,40.8,298.8,40.1,298.8,39.4z"/>
		<path class="st6" d="M310.7,39.9c0,0.5,0,1,0,1.4c0,0.2,0.2,0.4-0.1,0.5c-0.3,0.1-0.7,0.2-0.8-0.1c-0.2-0.3-0.3-0.2-0.5-0.1
			c-0.1,0.1-0.2,0.1-0.4,0.2c-1,0.4-2-0.1-2.3-1c-0.3-1,0.3-1.9,1.5-2.1c0.4-0.1,0.8-0.1,1.1-0.1c0.3,0,0.4-0.2,0.3-0.5
			c-0.1-0.3-0.4-0.5-0.7-0.6c-0.4-0.1-0.8,0-1.1,0.2c-0.4,0.2-0.5,0.1-0.7-0.2c-0.2-0.4,0.1-0.4,0.3-0.6c0.4-0.2,0.9-0.3,1.3-0.3
			c1.4-0.1,2,0.6,2,1.9C310.7,39.1,310.7,39.5,310.7,39.9C310.7,39.9,310.7,39.9,310.7,39.9z M309.6,40.1c0.1-0.3,0-0.5-0.5-0.5
			c-1,0-1.4,0.2-1.4,0.8c0,0.4,0.3,0.7,0.8,0.7C309.3,41,309.6,40.8,309.6,40.1z"/>
		<path class="st6" d="M283.8,39.4c0,0.7,0,1.3,0,2c0,0.2,0.2,0.4-0.1,0.5c-0.3,0-0.6,0.2-0.8-0.1c-0.2-0.3-0.3-0.2-0.5-0.1
			c-0.6,0.3-1.1,0.4-1.8,0.2c-0.7-0.2-1-0.8-1-1.4c0-1.1,0-2.2,0-3.3c0-0.5,0.4-0.3,0.7-0.3c0.3-0.1,0.5,0,0.5,0.4
			c0,0.9,0,1.8,0,2.7c0,1,0.7,1.4,1.6,0.9c0.3-0.2,0.4-0.4,0.4-0.7c0-1,0-1.9,0-2.9c0-0.5,0.3-0.4,0.5-0.4c0.3,0,0.6-0.1,0.6,0.4
			C283.7,38,283.8,38.7,283.8,39.4C283.8,39.4,283.8,39.4,283.8,39.4z"/>
		<path class="st6" d="M287.2,42c-1.5,0-2.5-1.1-2.4-2.6c0-1.6,1.2-2.7,2.7-2.6c0.3,0,0.6,0.1,0.8,0.2c0.3,0.1,0.6,0.7,0.4,1
			c-0.1,0.1-0.1,0.1-0.2,0.1c-0.1-0.1-0.2-0.1-0.3-0.1c-0.8-0.3-1.5-0.1-1.9,0.5c-0.4,0.6-0.4,1.6,0,2.2c0.4,0.6,1.1,0.7,1.9,0.4
			c0.3-0.1,0.5-0.3,0.7,0.2c0.2,0.4,0,0.5-0.3,0.6C288.1,41.9,287.6,42,287.2,42z"/>
		<path class="st6" d="M289.9,39.3c0-0.7,0-1.3,0-2c0-0.2-0.1-0.4,0.2-0.5c0.3,0,0.6-0.2,0.8,0.1c0.2,0.4,0.3,0.2,0.5,0.1
			c0.4-0.3,0.8-0.4,1.2-0.3c0.2,0,0.5,0.1,0.4,0.4c-0.1,0.3,0,0.8-0.5,0.7c-0.2,0-0.5-0.1-0.7,0c-0.4,0.2-0.7,0.4-0.6,0.9
			c0,0.9,0,1.8,0,2.7c0,0.5-0.2,0.5-0.6,0.4c-0.3,0-0.6,0.1-0.6-0.4C290,40.8,289.9,40.1,289.9,39.3z"/>
		<path class="st6" d="M304.6,39.3c0-0.7,0-1.4,0-2.1c0-0.5,0.3-0.4,0.6-0.4c0.3,0,0.6-0.1,0.5,0.4c0,1.4,0,2.8,0,4.2
			c0,0.5-0.3,0.4-0.6,0.4c-0.3,0-0.6,0.1-0.6-0.4C304.6,40.8,304.6,40.1,304.6,39.3z"/>
		<path class="st6" d="M296.7,34.5c0-0.2,0-0.4,0-0.6c0-0.4-0.1-1,0.6-0.6c0.1,0.1,0.3-0.1,0.5-0.1c0.6-0.2,1.1,0.1,1.1,0.8
			c0,0.5,0,1,0,1.4c0,0.2,0,0.3-0.3,0.3c-0.3,0-0.3-0.1-0.3-0.3c0-0.3,0-0.6,0-1c0-0.3,0.1-0.7-0.4-0.7c-0.4,0-0.6,0.3-0.6,0.7
			c0,0.3,0,0.6,0,0.9c0,0.2,0.1,0.5-0.3,0.5c-0.4,0-0.3-0.3-0.3-0.5C296.7,35,296.7,34.8,296.7,34.5z"/>
		<path class="st6" d="M296.3,34.5c0,0.8-0.5,1.3-1.3,1.3c-0.7,0-1.2-0.5-1.2-1.3c0-0.8,0.5-1.3,1.2-1.3
			C295.8,33.2,296.3,33.8,296.3,34.5z M294.4,34.4c0,0.6,0.2,1,0.6,0.9c0.5,0,0.6-0.4,0.6-0.8c0-0.5-0.2-0.9-0.6-0.8
			C294.5,33.7,294.5,34.1,294.4,34.4z"/>
		<path class="st6" d="M292.6,35.8c-0.5,0-0.9-0.2-1.1-0.7c-0.2-0.6-0.2-1.1,0.2-1.6c0.4-0.4,0.8-0.5,1.4-0.4
			c0.2,0.1,0.3,0.2,0.3,0.4c-0.1,0.3-0.2,0.1-0.4,0.1c-0.3-0.1-0.7,0-0.9,0.3c-0.2,0.3-0.2,0.7,0,1c0.2,0.3,0.4,0.4,0.8,0.4
			c0.2,0,0.5-0.3,0.5,0.1c0,0.3-0.3,0.3-0.5,0.4C292.8,35.8,292.7,35.8,292.6,35.8z"/>
		<path class="st6" d="M305.2,36c-0.4,0-0.7-0.4-0.7-0.7c0-0.4,0.3-0.6,0.7-0.7c0.4,0,0.7,0.3,0.7,0.7C305.9,35.7,305.6,36,305.2,36
			z"/>
	</g>
</g>
</svg>
